<svg width="64" height="64" viewBox="0 0 64 64" fill="none" xmlns="http://www.w3.org/2000/svg">
<circle cx="32" cy="32" r="32" fill="#FFE4E4"/>
<ellipse cx="42.5599" cy="25.77" rx="7.67999" ry="9.11999" fill="white"/>
<path fill-rule="evenodd" clip-rule="evenodd" d="M24.7082 48.9749C17.6467 43.5629 8.00006 34.6227 8.00006 26.1697C8.00006 12.0483 21.2004 6.77611 32 17.6847C42.7996 6.77611 56 12.0483 56 26.1696C56 34.6229 46.3535 43.5629 39.292 48.9749C36.0952 51.4251 34.4968 52.65 32 52.65C29.5033 52.65 27.9049 51.4251 24.7082 48.9749ZM42.8 19.65C43.7941 19.65 44.6 20.4559 44.6 21.45V24.4501H47.6C48.5941 24.4501 49.4 25.2559 49.4 26.2501C49.4 27.2442 48.5941 28.0501 47.6 28.0501H44.6V31.05C44.6 32.0441 43.7941 32.85 42.8 32.85C41.806 32.85 41 32.0441 41 31.05V28.0501H38C37.006 28.0501 36.2 27.2442 36.2 26.2501C36.2 25.2559 37.006 24.4501 38 24.4501H41V21.45C41 20.4559 41.806 19.65 42.8 19.65Z" fill="#FF2F2F"/>
</svg>
