<svg width="64" height="64" viewBox="0 0 64 64" fill="none" xmlns="http://www.w3.org/2000/svg">
<circle cx="32" cy="32" r="32" fill="#FFE7EC"/>
<path d="M12 32C12 22.5719 12 17.8579 14.9289 14.9289C17.8579 12 22.5719 12 32 12C41.428 12 46.1422 12 49.071 14.9289C52 17.8579 52 22.5719 52 32C52 41.428 52 46.1422 49.071 49.071C46.1422 52 41.428 52 32 52C22.5719 52 17.8579 52 14.9289 49.071C12 46.1422 12 41.428 12 32Z" fill="#F32E58"/>
<path fill-rule="evenodd" clip-rule="evenodd" d="M21.8276 30.5H12.0005C12 30.9864 12 31.4862 12 32C12 32.5138 12 33.0136 12.0005 33.5H27.9747C28.0066 33.5004 28.0386 33.5006 28.0708 33.5006H28.326C27.6486 36.367 25.0734 38.5 22 38.5C21.1716 38.5 20.5 39.1716 20.5 40C20.5 40.8284 21.1716 41.5 22 41.5C25.7201 41.5 28.9408 39.3618 30.5 36.2472V51.9996C30.9864 52 31.4862 52 32 52C32.5138 52 33.0136 52 33.5 51.9996V36.2472C35.0592 39.3618 38.28 41.5 42 41.5C42.8284 41.5 43.5 40.8284 43.5 40C43.5 39.1716 42.8284 38.5 42 38.5C38.9266 38.5 36.3514 36.367 35.674 33.5006H35.9298C35.9618 33.5006 35.9938 33.5004 36.0258 33.5H51.9996C52 33.0136 52 32.5138 52 32C52 31.4862 52 30.9864 51.9996 30.5H42.173C42.8746 29.6234 43.399 28.5894 43.685 27.4456C44.7614 23.1396 40.861 19.2392 36.555 20.3157C35.411 20.6017 34.3768 21.1261 33.5 21.8281V12.0005C33.0136 12 32.5138 12 32 12C31.4862 12 30.9864 12 30.5 12.0005V21.8276C29.6234 21.1259 28.5894 20.6016 27.4456 20.3157C23.1396 19.2392 19.2392 23.1396 20.3157 27.4456C20.6016 28.5894 21.1259 29.6234 21.8276 30.5ZM30.5 30.5H27.9949C25.7353 30.466 23.7757 28.9164 23.2261 26.718C22.6989 24.6091 24.6091 22.6989 26.718 23.2261C28.9164 23.7757 30.466 25.7353 30.5 27.9948V30.5ZM36.0058 30.5H33.5006V28.0708L33.5004 28.0112C33.5272 25.7447 35.0788 23.777 37.2826 23.2261C39.3914 22.6989 41.3018 24.6091 40.7744 26.718C40.2248 28.9164 38.2652 30.466 36.0058 30.5Z" fill="white"/>
</svg>
