<svg width="64" height="64" viewBox="0 0 64 64" fill="none" xmlns="http://www.w3.org/2000/svg">
<circle cx="32" cy="32" r="32" fill="#F7FFE4"/>
<circle cx="22.0818" cy="28.4237" r="7.21989" fill="white"/>
<circle cx="41.9366" cy="28.4237" r="7.21989" fill="white"/>
<path d="M48.0688 20.7527C46.4443 18.0452 43.4661 16.6915 40.2172 16.6915H23.9724C20.7235 16.6915 17.7453 18.0452 16.1208 20.7527C9.89364 30.2288 8.53991 44.5783 12.8718 47.5565C17.2038 50.5347 26.9506 37.5389 32.0948 37.5389C37.239 37.5389 46.7151 50.5347 51.3178 47.5565C55.6497 44.5783 54.296 30.2288 48.0688 20.7527ZM26.6799 30.2288H23.9724V32.9362H21.265V30.2288H18.5575V27.5213H21.265V24.8138H23.9724V27.5213H26.6799V30.2288ZM41.3002 31.5825C41.3002 32.9362 40.2172 34.0192 38.8635 34.0192C37.5097 34.0192 36.4267 32.9362 36.4267 31.5825C36.4267 30.2288 37.5097 29.1458 38.8635 29.1458C40.2172 29.1458 41.3002 30.2288 41.3002 31.5825ZM46.4443 26.1676C46.4443 27.5213 45.3614 28.6043 44.0076 28.6043C42.6539 28.6043 41.5709 27.5213 41.5709 26.1676C41.5709 24.8138 42.6539 23.7309 44.0076 23.7309C45.3614 23.7309 46.4443 24.8138 46.4443 26.1676Z" fill="#A1E01A"/>
</svg>
