<svg width="64" height="64" viewBox="0 0 64 64" fill="none" xmlns="http://www.w3.org/2000/svg">
<circle cx="32" cy="32" r="32" fill="#FFECE6"/>
<path fill-rule="evenodd" clip-rule="evenodd" d="M10 18.3276C10 17.0421 11.0421 16 12.3276 16H52.6724C53.9579 16 55 17.0421 55 18.3276V41.6034C55 42.8889 53.9579 43.931 52.6724 43.931H34.0517V45.4828H42.1983C42.841 45.4828 43.3621 46.0038 43.3621 46.6466C43.3621 47.2893 42.841 47.8103 42.1983 47.8103H32.5H22.8017C22.159 47.8103 21.6379 47.2893 21.6379 46.6466C21.6379 46.0038 22.159 45.4828 22.8017 45.4828H30.9483V43.931H12.3276C11.0421 43.931 10 42.8889 10 41.6034V18.3276Z" fill="#DC5116"/>
<rect x="12.3276" y="18.3276" width="40.3448" height="23.2759" rx="2.32759" fill="#FB875E"/>
<path d="M38.7069 29.9655L28.2328 36.0128L28.2328 23.9183L38.7069 29.9655Z" fill="white"/>
</svg>
