<svg width="64" height="64" viewBox="0 0 64 64" fill="none" xmlns="http://www.w3.org/2000/svg">
<circle cx="32" cy="32" r="32" fill="#E4F4FF"/>
<rect x="37.9156" y="14.8109" width="7.12692" height="10.6904" rx="0.906683" fill="#066CB6"/>
<rect x="24.3744" y="19.7997" width="14.9665" height="29.2204" rx="0.906683" fill="white"/>
<path fill-rule="evenodd" clip-rule="evenodd" d="M49.1075 30.1083L47.7151 28.9943V47.3274V48.6637V49.3765V50H16.5348V48.6637V47.3274V28.9943L15.1424 30.1083C14.5661 30.5694 13.7252 30.4758 13.2642 29.8996C12.8032 29.3232 12.8966 28.4822 13.4729 28.0213L27.9511 16.4387C30.3913 14.4866 33.8587 14.4866 36.2988 16.4387L50.777 28.0213C51.3534 28.4822 51.4467 29.3232 50.9858 29.8996C50.5247 30.4758 49.6839 30.5694 49.1075 30.1083ZM32.1249 21.4924C29.4188 21.4924 27.2252 23.6861 27.2252 26.3922C27.2252 29.0982 29.4188 31.2919 32.1249 31.2919C34.831 31.2919 37.0247 29.0982 37.0247 26.3922C37.0247 23.6861 34.831 21.4924 32.1249 21.4924ZM35.2356 33.1833C34.4182 33.0736 33.3976 33.0736 32.2129 33.0736H32.0371C30.8524 33.0736 29.8317 33.0736 29.0144 33.1833C28.1384 33.3011 27.2987 33.5668 26.6177 34.2479C25.9366 34.9289 25.671 35.7686 25.5532 36.6445C25.4434 37.4618 25.4434 38.4826 25.4435 39.6672V47.3274H28.1161H36.1338H38.8064V39.6672V39.447C38.8061 38.3557 38.7996 37.4109 38.6967 36.6445C38.5789 35.7686 38.3134 34.9289 37.6322 34.2479C36.9513 33.5668 36.1115 33.3011 35.2356 33.1833Z" fill="#159DFE"/>
</svg>
