<svg width="64" height="64" viewBox="0 0 64 64" fill="none" xmlns="http://www.w3.org/2000/svg">
<circle cx="32" cy="32" r="32" fill="#FFF6E7"/>
<path d="M11 21.2172C11 19.3788 12.3788 18 14.6768 18H49.1473C50.9857 18 52.8242 19.3788 52.8242 21.2172V41.8995C52.8242 43.7379 51.4453 45.1168 49.1473 45.1168H14.6768C12.8384 45.1168 11 43.7379 11 41.8995V21.2172Z" fill="#FC9A0A"/>
<path d="M11 23.0557H52.3645V28.1113H11V23.0557Z" fill="white"/>
<path d="M40.4148 38.6822C40.4148 37.763 41.334 36.8438 42.2532 36.8438H47.3089C48.2281 36.8438 49.1473 37.763 49.1473 38.6822V40.5207C49.1473 41.4399 48.2281 42.3591 47.3089 42.3591H42.2532C41.334 42.3591 40.4148 41.4399 40.4148 40.5207V38.6822Z" fill="#FFBF4E"/>
</svg>
