<svg width="181" height="133" viewBox="0 0 181 133" fill="none" xmlns="http://www.w3.org/2000/svg">
<path d="M2.944 63V55.576H8.832V25.624H2.944V18.2H25.984C28.7147 18.2 31.0827 18.6693 33.088 19.608C35.136 20.504 36.7147 21.8053 37.824 23.512C38.976 25.176 39.552 27.1813 39.552 29.528V30.168C39.552 32.216 39.168 33.9013 38.4 35.224C37.632 36.504 36.7147 37.5067 35.648 38.232C34.624 38.9147 33.6427 39.4053 32.704 39.704V40.856C33.6427 41.112 34.6667 41.6027 35.776 42.328C36.8853 43.0107 37.824 44.0133 38.592 45.336C39.4027 46.6587 39.808 48.3867 39.808 50.52V51.16C39.808 53.6347 39.232 55.768 38.08 57.56C36.928 59.3093 35.328 60.6533 33.28 61.592C31.2747 62.5307 28.928 63 26.24 63H2.944ZM17.28 55.32H25.216C27.0507 55.32 28.5227 54.872 29.632 53.976C30.784 53.08 31.36 51.8 31.36 50.136V49.496C31.36 47.832 30.8053 46.552 29.696 45.656C28.5867 44.76 27.0933 44.312 25.216 44.312H17.28V55.32ZM17.28 36.632H25.088C26.8373 36.632 28.2667 36.184 29.376 35.288C30.528 34.392 31.104 33.1547 31.104 31.576V30.936C31.104 29.3147 30.5493 28.0773 29.44 27.224C28.3307 26.328 26.88 25.88 25.088 25.88H17.28V36.632ZM56.836 63.896C54.5747 63.896 52.548 63.512 50.756 62.744C48.964 61.9333 47.5347 60.7813 46.468 59.288C45.444 57.752 44.932 55.896 44.932 53.72C44.932 51.544 45.444 49.7307 46.468 48.28C47.5347 46.7867 48.9853 45.6773 50.82 44.952C52.6973 44.184 54.8307 43.8 57.22 43.8H65.924V42.008C65.924 40.5147 65.4547 39.2987 64.516 38.36C63.5773 37.3787 62.084 36.888 60.036 36.888C58.0307 36.888 56.5373 37.3573 55.556 38.296C54.5747 39.192 53.9347 40.3653 53.636 41.816L46.212 39.32C46.724 37.6987 47.5347 36.2267 48.644 34.904C49.796 33.5387 51.3107 32.4507 53.188 31.64C55.108 30.7867 57.4333 30.36 60.164 30.36C64.3453 30.36 67.652 31.4053 70.084 33.496C72.516 35.5867 73.732 38.616 73.732 42.584V54.424C73.732 55.704 74.3293 56.344 75.524 56.344H78.084V63H72.708C71.1293 63 69.828 62.616 68.804 61.848C67.78 61.08 67.268 60.056 67.268 58.776V58.712H66.052C65.8813 59.224 65.4973 59.9067 64.9 60.76C64.3027 61.5707 63.364 62.296 62.084 62.936C60.804 63.576 59.0547 63.896 56.836 63.896ZM58.244 57.368C60.5053 57.368 62.34 56.7493 63.748 55.512C65.1987 54.232 65.924 52.5467 65.924 50.456V49.816H57.796C56.3027 49.816 55.1293 50.136 54.276 50.776C53.4227 51.416 52.996 52.312 52.996 53.464C52.996 54.616 53.444 55.5547 54.34 56.28C55.236 57.0053 56.5373 57.368 58.244 57.368ZM86.561 75.8V68.76H103.841C105.036 68.76 105.633 68.12 105.633 66.84V58.84H104.481C104.14 59.5653 103.606 60.2907 102.881 61.016C102.156 61.7413 101.174 62.3387 99.937 62.808C98.6997 63.2773 97.121 63.512 95.201 63.512C92.7263 63.512 90.5503 62.9573 88.673 61.848C86.8383 60.696 85.409 59.1173 84.385 57.112C83.361 55.1067 82.849 52.8027 82.849 50.2V31.256H90.913V49.56C90.913 51.9493 91.489 53.7413 92.641 54.936C93.8357 56.1307 95.521 56.728 97.697 56.728C100.172 56.728 102.092 55.9173 103.457 54.296C104.822 52.632 105.505 50.328 105.505 47.384V31.256H113.569V68.632C113.569 70.808 112.929 72.536 111.649 73.816C110.369 75.1387 108.662 75.8 106.529 75.8H86.561ZM132.399 63.896C130.137 63.896 128.111 63.512 126.319 62.744C124.527 61.9333 123.097 60.7813 122.031 59.288C121.007 57.752 120.495 55.896 120.495 53.72C120.495 51.544 121.007 49.7307 122.031 48.28C123.097 46.7867 124.548 45.6773 126.383 44.952C128.26 44.184 130.393 43.8 132.783 43.8H141.487V42.008C141.487 40.5147 141.017 39.2987 140.079 38.36C139.14 37.3787 137.647 36.888 135.599 36.888C133.593 36.888 132.1 37.3573 131.119 38.296C130.137 39.192 129.497 40.3653 129.199 41.816L121.775 39.32C122.287 37.6987 123.097 36.2267 124.207 34.904C125.359 33.5387 126.873 32.4507 128.751 31.64C130.671 30.7867 132.996 30.36 135.727 30.36C139.908 30.36 143.215 31.4053 145.647 33.496C148.079 35.5867 149.295 38.616 149.295 42.584V54.424C149.295 55.704 149.892 56.344 151.087 56.344H153.647V63H148.271C146.692 63 145.391 62.616 144.367 61.848C143.343 61.08 142.831 60.056 142.831 58.776V58.712H141.615C141.444 59.224 141.06 59.9067 140.463 60.76C139.865 61.5707 138.927 62.296 137.647 62.936C136.367 63.576 134.617 63.896 132.399 63.896ZM133.807 57.368C136.068 57.368 137.903 56.7493 139.311 55.512C140.761 54.232 141.487 52.5467 141.487 50.456V49.816H133.359C131.865 49.816 130.692 50.136 129.839 50.776C128.985 51.416 128.559 52.312 128.559 53.464C128.559 54.616 129.007 55.5547 129.903 56.28C130.799 57.0053 132.1 57.368 133.807 57.368ZM159.543 63V31.256H167.479V34.84H168.631C169.1 33.56 169.868 32.6213 170.935 32.024C172.044 31.4267 173.324 31.128 174.775 31.128H178.615V38.296H174.647C172.599 38.296 170.913 38.8507 169.591 39.96C168.268 41.0267 167.607 42.6907 167.607 44.952V63H159.543Z" fill="#285CDB"/>
<path d="M39.944 114V106.576H45.832V76.624H39.944V69.2H62.984C65.7147 69.2 68.0827 69.6693 70.088 70.608C72.136 71.504 73.7147 72.8053 74.824 74.512C75.976 76.176 76.552 78.1813 76.552 80.528V81.168C76.552 83.216 76.168 84.9013 75.4 86.224C74.632 87.504 73.7147 88.5067 72.648 89.232C71.624 89.9147 70.6427 90.4053 69.704 90.704V91.856C70.6427 92.112 71.6667 92.6027 72.776 93.328C73.8853 94.0107 74.824 95.0133 75.592 96.336C76.4027 97.6587 76.808 99.3867 76.808 101.52V102.16C76.808 104.635 76.232 106.768 75.08 108.56C73.928 110.309 72.328 111.653 70.28 112.592C68.2747 113.531 65.928 114 63.24 114H39.944ZM54.28 106.32H62.216C64.0507 106.32 65.5227 105.872 66.632 104.976C67.784 104.08 68.36 102.8 68.36 101.136V100.496C68.36 98.832 67.8053 97.552 66.696 96.656C65.5867 95.76 64.0933 95.312 62.216 95.312H54.28V106.32ZM54.28 87.632H62.088C63.8373 87.632 65.2667 87.184 66.376 86.288C67.528 85.392 68.104 84.1547 68.104 82.576V81.936C68.104 80.3147 67.5493 79.0773 66.44 78.224C65.3307 77.328 63.88 76.88 62.088 76.88H54.28V87.632ZM83.98 114V82.256H91.916V85.84H93.068C93.5373 84.56 94.3053 83.6213 95.372 83.024C96.4813 82.4267 97.7613 82.128 99.212 82.128H103.052V89.296H99.084C97.036 89.296 95.3507 89.8507 94.028 90.96C92.7053 92.0267 92.044 93.6907 92.044 95.952V114H83.98ZM123.334 114.896C120.177 114.896 117.339 114.256 114.822 112.976C112.305 111.696 110.321 109.84 108.87 107.408C107.419 104.976 106.694 102.053 106.694 98.64V97.616C106.694 94.2027 107.419 91.28 108.87 88.848C110.321 86.416 112.305 84.56 114.822 83.28C117.339 82 120.177 81.36 123.334 81.36C126.491 81.36 129.329 82 131.846 83.28C134.363 84.56 136.347 86.416 137.798 88.848C139.249 91.28 139.974 94.2027 139.974 97.616V98.64C139.974 102.053 139.249 104.976 137.798 107.408C136.347 109.84 134.363 111.696 131.846 112.976C129.329 114.256 126.491 114.896 123.334 114.896ZM123.334 107.728C125.809 107.728 127.857 106.939 129.478 105.36C131.099 103.739 131.91 101.435 131.91 98.448V97.808C131.91 94.8213 131.099 92.5387 129.478 90.96C127.899 89.3387 125.851 88.528 123.334 88.528C120.859 88.528 118.811 89.3387 117.19 90.96C115.569 92.5387 114.758 94.8213 114.758 97.808V98.448C114.758 101.435 115.569 103.739 117.19 105.36C118.811 106.939 120.859 107.728 123.334 107.728Z" fill="#285CDB"/>
<path d="M148.44 99.28V69.2H156.632V99.28H148.44ZM152.536 114.896C150.829 114.896 149.379 114.341 148.184 113.232C147.032 112.08 146.456 110.608 146.456 108.816C146.456 107.024 147.032 105.573 148.184 104.464C149.379 103.312 150.829 102.736 152.536 102.736C154.285 102.736 155.736 103.312 156.888 104.464C158.04 105.573 158.616 107.024 158.616 108.816C158.616 110.608 158.04 112.08 156.888 113.232C155.736 114.341 154.285 114.896 152.536 114.896Z" fill="#285CDB"/>
</svg>
