<svg width="64" height="64" viewBox="0 0 64 64" fill="none" xmlns="http://www.w3.org/2000/svg">
<circle cx="32" cy="32" r="32" fill="#FFEEE4"/>
<path fill-rule="evenodd" clip-rule="evenodd" d="M21.4389 13.1541C21.4389 12.3786 20.8103 11.75 20.0349 11.75C19.2594 11.75 18.6308 12.3786 18.6308 13.1541V50.5959C18.6308 51.3714 19.2594 52 20.0349 52C20.8103 52 21.4389 51.3714 21.4389 50.5959V35.3384V16.6174V13.1541Z" fill="#FF701F"/>
<path d="M34.2602 16.9722L33.8788 16.8197C30.9531 15.6494 27.7502 15.3553 24.6602 15.9733L21.439 16.6175V35.3384L24.6602 34.6942C27.7502 34.0762 30.9531 34.3703 33.8788 35.5406C37.0494 36.8087 40.5388 37.0456 43.8517 36.2173L44.253 36.117C45.4233 35.8246 46.2442 34.773 46.2442 33.567V19.7752C46.2442 18.3139 44.871 17.2417 43.4533 17.5961C40.3995 18.3595 37.1827 18.1412 34.2602 16.9722Z" fill="#FF9C64"/>
<circle cx="28.3657" cy="25.2291" r="1.49767" fill="white"/>
<circle cx="34.3563" cy="25.9779" r="1.49767" fill="white"/>
<circle cx="39.5982" cy="26.7267" r="1.49767" fill="white"/>
</svg>
