<svg width="64" height="64" viewBox="0 0 64 64" fill="none" xmlns="http://www.w3.org/2000/svg">
<circle cx="32" cy="32" r="32" fill="#E4FFF7"/>
<rect x="16" y="11" width="32.6327" height="41" rx="3.34694" fill="#04D090"/>
<rect x="20.1837" y="16.0204" width="8.36735" height="3.34694" rx="1.67347" fill="white"/>
<rect x="20.1837" y="21.0408" width="8.36735" height="3.34694" rx="1.67347" fill="white"/>
<rect x="20.1837" y="26.0612" width="8.36735" height="3.34694" rx="1.67347" fill="white"/>
<rect x="20.1837" y="31.0816" width="8.36735" height="3.34694" rx="1.67347" fill="white"/>
<rect x="30.2245" y="16.0204" width="15.0612" height="3.34694" rx="1.67347" fill="white"/>
<rect x="30.2245" y="21.0408" width="15.0612" height="3.34694" rx="1.67347" fill="white"/>
<rect x="30.2245" y="26.0612" width="15.0612" height="3.34694" rx="1.67347" fill="white"/>
<rect x="30.2245" y="31.0816" width="15.0612" height="3.34694" rx="1.67347" fill="white"/>
<rect x="20.1837" y="36.1021" width="25.102" height="3.34694" rx="1.67347" fill="white"/>
<rect x="20.1837" y="41.1224" width="25.102" height="3.34694" rx="1.67347" fill="white"/>
</svg>
