<svg width="64" height="64" viewBox="0 0 64 64" fill="none" xmlns="http://www.w3.org/2000/svg">
<circle cx="32" cy="32" r="32" fill="#DAE8FF"/>
<path d="M32.1876 10.0007C30.6399 10.0337 30.1925 11.7208 29.6386 13.0998C29.0848 14.4788 25.7877 21.979 23.6532 25.7639C21.5187 29.5489 18.6286 34.5074 19.0394 41.5968C19.4538 48.6863 24.9588 53.9786 32.6717 53.9199C39.6438 53.8685 45.7429 49.8489 45.9923 41.1164C46.1977 33.8876 42.2221 27.6417 40.2599 23.8201C39.0936 21.5462 35.2757 13.936 34.8723 12.9935C34.1498 11.3064 33.8417 9.96406 32.1876 10.0007Z" fill="#3DBFFF"/>
<path d="M26.3195 32.1345C25.2339 32.1822 22.6519 35.5417 22.6519 39.7777C22.6519 44.0138 24.6507 47.1422 26.8329 46.6948C29.3636 46.1777 28.9491 43.5957 28.432 41.5308C27.9882 39.7557 27.2951 37.6579 27.141 35.7471C27.0457 34.5111 27.4564 32.0832 26.3195 32.1345Z" fill="white"/>
</svg>
