<svg width="64" height="64" viewBox="0 0 64 64" fill="none" xmlns="http://www.w3.org/2000/svg">
<circle cx="32" cy="32" r="32" fill="#E4FBFF"/>
<path d="M46.3861 25.0641H17.6139V37.532H46.3861V25.0641Z" fill="#07AFDB"/>
<path d="M32 43.2865C39.9452 43.2865 46.3861 40.7101 46.3861 37.532C46.3861 34.3539 39.9452 31.7776 32 31.7776C24.0548 31.7776 17.6139 34.3539 17.6139 37.532C17.6139 40.7101 24.0548 43.2865 32 43.2865Z" fill="#07AFDB"/>
<path d="M31.1368 13.747L9.55768 23.2419C8.79042 23.6255 8.79042 24.6805 9.55768 25.0641L31.1368 34.5589C31.7123 34.7507 32.2877 34.7507 32.8632 34.5589L54.4423 25.0641C55.2096 24.6805 55.2096 23.6255 54.4423 23.2419L32.8632 13.747C32.2877 13.4593 31.7123 13.4593 31.1368 13.747Z" fill="#07CCF4"/>
<path d="M50.4142 25.4477L31.2328 22.1869C30.7532 22.0909 30.1778 22.4746 30.0819 22.9541C29.986 23.4336 30.3696 24.0091 30.8491 24.105L49.2633 27.174V41.3683C49.2633 41.9438 49.647 42.3274 50.2224 42.3274C50.7978 42.3274 51.1815 41.9438 51.1815 41.3683V26.4068C51.1815 25.9272 50.7978 25.5436 50.4142 25.4477Z" fill="#07AFDB"/>
<path d="M50.2223 43.2865C51.2817 43.2865 52.1405 42.4277 52.1405 41.3683C52.1405 40.309 51.2817 39.4502 50.2223 39.4502C49.163 39.4502 48.3042 40.309 48.3042 41.3683C48.3042 42.4277 49.163 43.2865 50.2223 43.2865Z" fill="white"/>
<path d="M53.0996 44.2456C53.0996 45.876 50.2224 50 50.2224 50C50.2224 50 47.3452 45.876 47.3452 44.2456C47.3452 42.6151 48.5919 41.3683 50.2224 41.3683C51.8528 41.3683 53.0996 42.6151 53.0996 44.2456Z" fill="#07AFDB"/>
</svg>
