<svg width="64" height="64" viewBox="0 0 64 64" fill="none" xmlns="http://www.w3.org/2000/svg">
<circle cx="32" cy="32" r="32" fill="#FFF7E9"/>
<path fill-rule="evenodd" clip-rule="evenodd" d="M36.047 8.57598C36.646 7.73547 37.9203 8.48839 37.7264 9.56827L34.5839 27.0716L35.5834 27.8363L42.5944 31.7793C43.1531 32.0934 43.3519 32.8804 43.0025 33.3941L27.5709 56.0791C26.9894 56.934 25.6971 56.2072 25.8703 55.1227L28.614 37.9379L24.6932 34.938L20.5404 32.4842C19.9882 32.1579 19.806 31.3657 20.1667 30.8595L36.047 8.57598Z" fill="#FC9A0A"/>
<path fill-rule="evenodd" clip-rule="evenodd" d="M34.6242 10.5726C32.5505 16.7226 28.5863 28.7242 28.5036 29.9646C28.3983 31.5422 34.372 34.6348 35.4658 34.8663C36.3381 35.0509 32.3357 46.4666 30.2054 52.2065L43.0026 33.394C43.352 32.8804 43.1532 32.0934 42.5946 31.7792L35.5835 27.8363L34.584 27.0716L37.7265 9.56823C37.9204 8.48834 36.6461 7.73543 36.0471 8.57594L34.6242 10.5726Z" fill="#FEB128"/>
</svg>
