<svg width="64" height="64" viewBox="0 0 64 64" fill="none" xmlns="http://www.w3.org/2000/svg">
<circle cx="32" cy="32" r="32" fill="#E6FFFA"/>
<path d="M32.5 53.3333C23.3076 53.3333 18.7114 53.3333 15.8557 50.1602C13 46.9874 13 41.8803 13 31.6667C13 21.4529 13 16.346 15.8557 13.173C18.7114 10 23.3076 10 32.5 10C41.6923 10 46.2887 10 49.1443 13.173C52 16.346 52 21.4529 52 31.6667C52 41.8803 52 46.9874 49.1443 50.1602C46.2887 53.3333 41.6923 53.3333 32.5 53.3333Z" fill="#00C7A3"/>
<path d="M39 18.6667H26C24.9925 18.6667 24.4888 18.6667 24.0755 18.7774C22.954 19.0779 22.0779 19.954 21.7774 21.0755C21.6667 21.4888 21.6667 21.9925 21.6667 23C21.6667 24.0075 21.6667 24.5112 21.7774 24.9245C22.0779 26.0461 22.954 26.9221 24.0755 27.2226C24.4888 27.3334 24.9925 27.3334 26 27.3334H39C40.0075 27.3334 40.5113 27.3334 40.9245 27.2226C42.0461 26.9221 42.9221 26.0461 43.2226 24.9245C43.3334 24.5112 43.3334 24.0075 43.3334 23C43.3334 21.9925 43.3334 21.4888 43.2226 21.0755C42.9221 19.954 42.0461 19.0779 40.9245 18.7774C40.5113 18.6667 40.0075 18.6667 39 18.6667Z" fill="white"/>
<path d="M23.8334 36C25.03 36 26 35.03 26 33.8334C26 32.6367 25.03 31.6667 23.8334 31.6667C22.6367 31.6667 21.6667 32.6367 21.6667 33.8334C21.6667 35.03 22.6367 36 23.8334 36Z" fill="white"/>
<path d="M23.8334 44.6666C25.03 44.6666 26 43.6966 26 42.5C26 41.3033 25.03 40.3333 23.8334 40.3333C22.6367 40.3333 21.6667 41.3033 21.6667 42.5C21.6667 43.6966 22.6367 44.6666 23.8334 44.6666Z" fill="white"/>
<path d="M32.5 36C33.6966 36 34.6666 35.03 34.6666 33.8334C34.6666 32.6367 33.6966 31.6667 32.5 31.6667C31.3033 31.6667 30.3333 32.6367 30.3333 33.8334C30.3333 35.03 31.3033 36 32.5 36Z" fill="white"/>
<path d="M32.5 44.6666C33.6966 44.6666 34.6666 43.6966 34.6666 42.5C34.6666 41.3033 33.6966 40.3333 32.5 40.3333C31.3033 40.3333 30.3333 41.3033 30.3333 42.5C30.3333 43.6966 31.3033 44.6666 32.5 44.6666Z" fill="white"/>
<path d="M41.1667 36C42.3633 36 43.3333 35.03 43.3333 33.8334C43.3333 32.6367 42.3633 31.6667 41.1667 31.6667C39.97 31.6667 39 32.6367 39 33.8334C39 35.03 39.97 36 41.1667 36Z" fill="white"/>
<path d="M41.1667 44.6666C42.3633 44.6666 43.3333 43.6966 43.3333 42.5C43.3333 41.3033 42.3633 40.3333 41.1667 40.3333C39.97 40.3333 39 41.3033 39 42.5C39 43.6966 39.97 44.6666 41.1667 44.6666Z" fill="white"/>
</svg>
