<svg width="64" height="64" viewBox="0 0 64 64" fill="none" xmlns="http://www.w3.org/2000/svg">
<circle cx="32" cy="32" r="32" fill="#E6F0FF"/>
<path d="M51.0528 17.6199L46.5164 10.3808C46.5164 10.3808 40.3311 16.8582 32.5006 10C24.6663 16.8582 18.483 10.3808 18.483 10.3808L13.9485 17.6199C13.9485 17.6199 19.252 20.1431 13.771 30.6965C9.9556 38.0501 12.403 44.6309 20.167 48.4279C27.0659 51.8052 32.5006 54.7629 32.5006 54.7629C32.5006 54.7629 37.9335 51.8052 44.8342 48.4279C52.5981 44.6309 55.0457 38.0501 51.2264 30.6965C45.7437 20.1431 51.0528 17.6199 51.0528 17.6199Z" fill="#1A75FF"/>
<path d="M30.253 25.0396C31.3399 23.0897 31.8834 22.1147 32.6959 22.1147C33.5083 22.1147 34.0519 23.0897 35.1388 25.0396L35.4201 25.544C35.7288 26.0981 35.8833 26.3751 36.1241 26.5579C36.3649 26.7407 36.6649 26.8086 37.2647 26.9443L37.8106 27.0679C39.9215 27.5455 40.9768 27.7842 41.2279 28.5917C41.479 29.399 40.7595 30.2403 39.3206 31.9231L38.9482 32.3584C38.5394 32.8365 38.335 33.0756 38.243 33.3715C38.151 33.6672 38.1819 33.9862 38.2437 34.6241L38.2999 35.2049C38.5176 37.4499 38.6262 38.5725 37.9689 39.0715C37.3116 39.5705 36.3235 39.1156 34.3473 38.2056L33.836 37.9701C33.2743 37.7117 32.9935 37.5823 32.6959 37.5823C32.3983 37.5823 32.1175 37.7117 31.5558 37.9701L31.0445 38.2056C29.0683 39.1156 28.0802 39.5705 27.4228 39.0715C26.7655 38.5725 26.8743 37.4499 27.0918 35.2049L27.1481 34.6241C27.2099 33.9862 27.2408 33.6672 27.1488 33.3715C27.0569 33.0756 26.8524 32.8365 26.4435 32.3584L26.0712 31.9231C24.6323 30.2403 23.9128 29.399 24.1639 28.5917C24.415 27.7842 25.4703 27.5455 27.5811 27.0679L28.1271 26.9443C28.7269 26.8086 29.0268 26.7407 29.2677 26.5579C29.5085 26.3751 29.6629 26.0981 29.9717 25.544L30.253 25.0396Z" fill="white"/>
</svg>
