<svg width="64" height="64" viewBox="0 0 64 64" fill="none" xmlns="http://www.w3.org/2000/svg">
<circle cx="32" cy="32" r="32" fill="#FFE6E6"/>
<path fill-rule="evenodd" clip-rule="evenodd" d="M17.4531 14.785C18.0991 15.4322 18.098 16.4805 17.4508 17.1264C13.7453 20.8246 11.4556 25.9332 11.4556 31.5796C11.4556 37.2921 13.7992 42.4542 17.5815 46.1621C18.2344 46.8023 18.2449 47.8504 17.6048 48.5034C16.9647 49.1564 15.9164 49.1667 15.2635 48.5266C10.872 44.2217 8.14435 38.2177 8.14435 31.5796C8.14435 25.0185 10.8093 19.0766 15.1117 14.7827C15.7589 14.1368 16.8072 14.1378 17.4531 14.785ZM46.4807 14.9448C47.1337 14.3047 48.1818 14.3151 48.822 14.9681C53.0165 19.2468 55.6057 25.1125 55.6057 31.5796C55.6057 38.1237 52.9547 44.0517 48.6719 48.3429C48.026 48.9901 46.9776 48.9912 46.3306 48.3453C45.6834 47.6994 45.6823 46.6511 46.3282 46.0038C50.0167 42.308 52.2944 37.2113 52.2944 31.5796C52.2944 26.0138 50.0697 20.971 46.4576 17.2861C45.8174 16.6332 45.8278 15.5849 46.4807 14.9448ZM23.7276 21.6184C24.3524 22.286 24.3177 23.3337 23.65 23.9585C21.5553 25.9187 20.2856 28.5999 20.2856 31.5403C20.2856 34.5149 21.5851 37.2248 23.7239 39.1908C24.3971 39.8096 24.4412 40.8568 23.8224 41.5301C23.2036 42.2032 22.1562 42.2473 21.4831 41.6286C18.7176 39.0864 16.9744 35.5142 16.9744 31.5403C16.9744 27.6127 18.6774 24.0769 21.3875 21.5408C22.0551 20.916 23.1029 20.9507 23.7276 21.6184ZM40.1375 21.7023C40.7695 21.0415 41.8174 21.0182 42.4783 21.6503C45.1211 24.1781 46.7757 27.6692 46.7757 31.5403C46.7757 35.4577 45.0814 38.9853 42.3836 41.5199C41.7174 42.1462 40.6695 42.1135 40.0434 41.4471C39.4174 40.7806 39.4501 39.733 40.1163 39.1069C42.2013 37.148 43.4644 34.4732 43.4644 31.5403C43.4644 28.6418 42.2306 25.9956 40.1893 24.0431C39.5286 23.4111 39.5055 22.3631 40.1375 21.7023Z" fill="#FF4343"/>
<path d="M35.5313 28.1603C37.5088 29.6122 38.4975 30.338 38.4975 31.5795C38.4975 32.821 37.5088 33.5469 35.5313 34.9987C34.9856 35.3994 34.4441 35.7769 33.9465 36.0912C33.5101 36.3672 33.0159 36.6524 32.5039 36.9325C30.5313 38.0122 29.5448 38.5522 28.6602 37.9544C27.7755 37.3566 27.6951 36.1054 27.5344 33.6029C27.4889 32.8952 27.46 32.2014 27.46 31.5795C27.46 30.9577 27.4889 30.2639 27.5344 29.5561C27.6951 27.0537 27.7755 25.8024 28.6602 25.2047C29.5448 24.607 30.5313 25.1469 32.5039 26.2265C33.0159 26.5067 33.5101 26.792 33.9465 27.0678C34.4441 27.3822 34.9856 27.7597 35.5313 28.1603Z" fill="#FF8383"/>
</svg>
