<svg width="64" height="64" viewBox="0 0 64 64" fill="none" xmlns="http://www.w3.org/2000/svg">
<circle cx="32" cy="32" r="32" fill="#FFF6E6"/>
<path d="M53 24.5417C53 21.0817 49.5833 16 32.5 16C15.4167 16 12 21.0817 12 24.5417C12 24.5929 12.0216 24.6282 12.0251 24.6772C12.0114 24.9004 12 25.135 12 25.3958C12 28.3831 14.55 29.6667 17.6944 29.6667C20.8389 29.6667 23.3889 28.3831 23.3889 25.3958C23.3881 25.168 23.3687 24.9406 23.3308 24.7159C26.0926 24.3162 29.1995 23.9722 32.5 23.9722C35.8005 23.9722 38.9074 24.3162 41.6692 24.7159C41.6313 24.9406 41.6119 25.168 41.6111 25.3958C41.6111 28.3831 44.1599 29.6667 47.3056 29.6667C50.4512 29.6667 53 28.3831 53 25.3958C53 25.1396 52.9897 24.9073 52.9727 24.6886C52.9772 24.6362 53 24.5975 53 24.5417Z" fill="#FC9A0A"/>
<path d="M51.7859 37.6389C51.237 36.4647 49.1551 32.867 47.2668 29.6587C45.4924 26.6441 42.75 23.9722 40.4722 23.9722V21.6945C40.4722 21.0904 40.2322 20.511 39.8051 20.0838C39.3779 19.6567 38.7985 19.4167 38.1944 19.4167C37.5903 19.4167 37.011 19.6567 36.5838 20.0838C36.1566 20.511 35.9167 21.0904 35.9167 21.6945V23.9722H29.0833V21.6945C29.0833 21.0904 28.8434 20.511 28.4162 20.0838C27.989 19.6567 27.4097 19.4167 26.8056 19.4167C26.2015 19.4167 25.6221 19.6567 25.1949 20.0838C24.7678 20.511 24.5278 21.0904 24.5278 21.6945V23.9722C22.25 23.9722 19.5053 26.6498 17.7286 29.6667C15.8415 32.8727 13.7619 36.4659 13.2141 37.6389C12.5558 39.05 12 39.9167 12 42.1945C12 44.4722 14.0397 47.8889 16.5556 47.8889H48.4444C50.9602 47.8889 53 44.4722 53 42.1945C53 39.9167 52.4898 39.1468 51.7859 37.6389Z" fill="#FEB128"/>
<ellipse cx="32.8417" cy="34.3361" rx="9.90833" ry="5.80833" fill="white"/>
</svg>
